# 3ds Max Wavefront OBJ Exporter v0.97b - (c)2007 guruware
# File Created: 29.10.2015 21:15:02

mtllib Dragon_Egg.mtl

#
# object Dragon_Egg
#

v  0.000000 49.364700 -0.000000
v  0.000000 48.310738 -3.987459
v  -1.512909 48.310738 -3.652417
v  -2.819614 48.310738 -2.819561
v  -3.652487 48.310738 -1.512881
v  -3.987538 48.310738 -0.000001
v  -3.652488 48.310738 1.512879
v  -2.819615 48.310738 2.819560
v  -1.512911 48.310738 3.652417
v  -0.000002 48.310738 3.987462
v  1.512907 48.310738 3.652418
v  2.819612 48.310738 2.819563
v  3.652487 48.310738 1.512882
v  3.987539 48.310738 0.000003
v  3.652488 48.310738 -1.512878
v  2.819616 48.310738 -2.819558
v  1.512913 48.310738 -3.652414
v  0.000000 45.220661 -7.714075
v  -2.926927 45.220661 -7.065903
v  -5.454950 45.220661 -5.454672
v  -7.066300 45.220661 -2.926793
v  -7.714526 45.220661 -0.000001
v  -7.066300 45.220661 2.926792
v  -5.454952 45.220661 5.454672
v  -2.926929 45.220661 7.065901
v  -0.000004 45.220661 7.714071
v  2.926923 45.220661 7.065904
v  5.454947 45.220661 5.454677
v  7.066300 45.220661 2.926797
v  7.714529 45.220661 0.000006
v  7.066305 45.220661 -2.926785
v  5.454954 45.220661 -5.454668
v  2.926934 45.220661 -7.065899
v  0.000000 40.305084 -10.951608
v  -4.155308 40.305084 -10.031404
v  -7.744637 40.305084 -7.743955
v  -10.032833 40.305084 -4.155145
v  -10.953431 40.305084 -0.000002
v  -10.032833 40.305084 4.155141
v  -7.744640 40.305084 7.743952
v  -4.155312 40.305084 10.031402
v  -0.000005 40.305084 10.951606
v  4.155303 40.305084 10.031404
v  7.744636 40.305084 7.743959
v  10.032831 40.305084 4.155151
v  10.953433 40.305084 0.000008
v  10.032839 40.305084 -4.155134
v  7.744646 40.305084 -7.743948
v  4.155318 40.305084 -10.031403
v  -0.000001 33.898026 -13.521433
v  -5.128580 33.898026 -12.385302
v  -9.560700 33.898026 -9.561097
v  -12.388498 33.898026 -5.130160
v  -13.526727 33.898026 -0.000002
v  -12.388498 33.898026 5.130157
v  -9.560702 33.898026 9.561090
v  -5.128583 33.898026 12.385298
v  -0.000006 33.898026 13.521431
v  5.128572 33.898026 12.385302
v  9.560697 33.898026 9.561102
v  12.388494 33.898026 5.130169
v  13.526725 33.898026 0.000010
v  12.388502 33.898026 -5.130148
v  9.560711 33.898026 -9.561087
v  5.128592 33.898026 -12.385298
v  -0.000001 26.366327 -15.172601
v  -5.746262 26.366327 -13.897732
v  -10.719917 26.366327 -10.728649
v  -13.901978 26.366327 -5.756629
v  -15.184855 26.366327 -0.000003
v  -13.901978 26.366327 5.756625
v  -10.719922 26.366327 10.728644
v  -5.746265 26.366327 13.897728
v  -0.000007 26.366327 15.172599
v  5.746255 26.366327 13.897734
v  10.719911 26.366327 10.728655
v  13.901968 26.366327 5.756638
v  15.184855 26.366327 0.000011
v  13.901979 26.366327 -5.756618
v  10.719928 26.366327 -10.728640
v  5.746275 26.366327 -13.897726
v  -0.000001 18.433208 -15.650802
v  -5.905886 18.433208 -14.335752
v  -11.035477 18.433208 -11.066787
v  -14.337784 18.433208 -5.938063
v  -15.674027 18.433208 -0.000003
v  -14.337783 18.433208 5.938060
v  -11.035481 18.433208 11.066784
v  -5.905890 18.433208 14.335749
v  -0.000007 18.433208 15.650802
v  5.905878 18.433208 14.335754
v  11.035471 18.433208 11.066792
v  14.337775 18.433208 5.938072
v  15.674026 18.433208 0.000012
v  14.337787 18.433208 -5.938049
v  11.035488 18.433208 -11.066778
v  5.905900 18.433208 -14.335746
v  -0.000001 11.115509 -14.851538
v  -5.576012 11.115509 -13.603646
v  -10.442286 11.115509 -10.501623
v  -13.602086 11.115509 -5.634814
v  -14.887166 11.115509 -0.000003
v  -13.602085 11.115508 5.634810
v  -10.442291 11.115507 10.501617
v  -5.576014 11.115507 13.603640
v  -0.000007 11.115507 14.851534
v  5.576004 11.115505 13.603643
v  10.442283 11.115504 10.501628
v  13.602077 11.115508 5.634824
v  14.887165 11.115507 0.000011
v  13.602091 11.115508 -5.634802
v  10.442297 11.115509 -10.501613
v  5.576024 11.115509 -13.603640
v  -0.000001 5.346665 -12.823709
v  -4.801142 5.346668 -11.746204
v  -9.004154 5.346668 -9.067731
v  -11.748117 5.346668 -4.865437
v  -12.867584 5.346668 -0.000003
v  -11.748117 5.346670 4.865435
v  -9.004157 5.346668 9.067726
v  -4.801147 5.346668 11.746196
v  -0.000006 5.346668 12.823706
v  4.801136 5.346668 11.746202
v  9.004150 5.346668 9.067736
v  11.748116 5.346666 4.865445
v  12.867584 5.346668 0.000009
v  11.748124 5.346668 -4.865426
v  9.004166 5.346668 -9.067722
v  4.801155 5.346668 -11.746202
v  -0.000001 1.660437 -9.842294
v  -3.695586 1.660436 -9.015299
v  -6.925900 1.660435 -6.959551
v  -9.028793 1.660435 -3.734260
v  -9.885201 1.660435 -0.000003
v  -9.028793 1.660435 3.734257
v  -6.925902 1.660437 6.959548
v  -3.695586 1.660437 9.015298
v  -0.000005 1.660437 9.842293
v  3.695579 1.660437 9.015303
v  6.925900 1.660437 6.959553
v  9.028793 1.660435 3.734265
v  9.885204 1.660437 0.000007
v  9.028799 1.660435 -3.734251
v  6.925909 1.660435 -6.959546
v  3.695594 1.660436 -9.015297
v  -0.000001 -0.039495 -6.405598
v  -2.422431 -0.039571 -5.867371
v  -4.528944 -0.039504 -4.529441
v  -5.887640 -0.039040 -2.430347
v  -6.437974 -0.038719 -0.000001
v  -5.887639 -0.039040 2.430343
v  -4.528945 -0.039506 4.529441
v  -2.422433 -0.039568 5.867370
v  -0.000003 -0.039492 6.405598
v  2.422428 -0.039570 5.867372
v  4.528942 -0.039506 4.529445
v  5.887640 -0.039040 2.430349
v  6.437974 -0.038719 0.000004
v  5.887644 -0.039040 -2.430341
v  4.528950 -0.039501 -4.529438
v  2.422438 -0.039568 -5.867370
v  0.000000 -0.399399 -0.000002
# 162 vertices

vn -0.000000 1.000000 -0.000000
vn 0.000000 0.876949 -0.480583
vn -0.183297 0.877818 -0.442535
vn -0.339808 0.876955 -0.339825
vn -0.442514 0.877827 -0.183305
vn -0.480560 0.876962 -0.000000
vn -0.442514 0.877827 0.183305
vn -0.339808 0.876955 0.339825
vn -0.183297 0.877818 0.442535
vn -0.000000 0.876949 0.480584
vn 0.183296 0.877818 0.442535
vn 0.339808 0.876955 0.339825
vn 0.442513 0.877827 0.183306
vn 0.480560 0.876962 0.000000
vn 0.442513 0.877827 -0.183305
vn 0.339808 0.876955 -0.339825
vn 0.183297 0.877818 -0.442535
vn 0.000000 0.657252 -0.753671
vn -0.288765 0.656162 -0.697185
vn -0.532877 0.657279 -0.532941
vn -0.697112 0.656222 -0.288804
vn -0.753596 0.657338 -0.000000
vn -0.697112 0.656222 0.288804
vn -0.532877 0.657279 0.532941
vn -0.288765 0.656161 0.697185
vn -0.000000 0.657252 0.753671
vn 0.288764 0.656161 0.697185
vn 0.532876 0.657279 0.532942
vn 0.697111 0.656222 0.288805
vn 0.753596 0.657338 0.000001
vn 0.697112 0.656222 -0.288804
vn 0.532877 0.657279 -0.532941
vn 0.288765 0.656162 -0.697185
vn 0.000000 0.457892 -0.889008
vn -0.340580 0.455941 -0.822267
vn -0.628518 0.457904 -0.628720
vn -0.822103 0.456116 -0.340740
vn -0.888877 0.458147 -0.000000
vn -0.822104 0.456116 0.340740
vn -0.628518 0.457904 0.628720
vn -0.340580 0.455941 0.822267
vn -0.000000 0.457892 0.889008
vn 0.340579 0.455941 0.822267
vn 0.628518 0.457904 0.628720
vn 0.822103 0.456116 0.340741
vn 0.888877 0.458146 0.000001
vn 0.822104 0.456116 -0.340739
vn 0.628519 0.457904 -0.628719
vn 0.340580 0.455942 -0.822267
vn 0.000000 0.290991 -0.956726
vn -0.366385 0.289224 -0.884371
vn -0.676256 0.290783 -0.676848
vn -0.884037 0.289554 -0.366929
vn -0.956574 0.291490 -0.000000
vn -0.884037 0.289554 0.366929
vn -0.676256 0.290783 0.676847
vn -0.366385 0.289224 0.884371
vn -0.000000 0.290991 0.956726
vn 0.366384 0.289224 0.884371
vn 0.676256 0.290783 0.676848
vn 0.884037 0.289554 0.366930
vn 0.956574 0.291490 0.000001
vn 0.884037 0.289554 -0.366928
vn 0.676257 0.290783 -0.676847
vn 0.366385 0.289224 -0.884371
vn 0.000000 0.135935 -0.990718
vn -0.379457 0.134659 -0.915357
vn -0.699842 0.135160 -0.701394
vn -0.914663 0.135128 -0.380963
vn -0.990614 0.136686 -0.000000
vn -0.914663 0.135128 0.380963
vn -0.699842 0.135160 0.701394
vn -0.379457 0.134659 0.915357
vn -0.000000 0.135935 0.990718
vn 0.379457 0.134659 0.915358
vn 0.699841 0.135160 0.701394
vn 0.914662 0.135128 0.380964
vn 0.990615 0.136686 0.000001
vn 0.914663 0.135128 -0.380962
vn 0.699842 0.135160 -0.701393
vn 0.379458 0.134659 -0.915357
vn 0.000000 -0.024369 -0.999703
vn -0.383130 -0.024910 -0.923359
vn -0.705188 -0.025663 -0.708556
vn -0.922003 -0.024368 -0.386416
vn -0.999725 -0.023469 0.000000
vn -0.922003 -0.024368 0.386416
vn -0.705188 -0.025663 0.708556
vn -0.383130 -0.024910 0.923358
vn -0.000000 -0.024370 0.999703
vn 0.383129 -0.024910 0.923359
vn 0.705188 -0.025663 0.708556
vn 0.922002 -0.024368 0.386416
vn 0.999725 -0.023469 0.000001
vn 0.922003 -0.024368 -0.386415
vn 0.705189 -0.025663 -0.708555
vn 0.383130 -0.024910 -0.923358
vn 0.000000 -0.218521 -0.975832
vn -0.374265 -0.217835 -0.901373
vn -0.687100 -0.219184 -0.692714
vn -0.899228 -0.217275 -0.379710
vn -0.976024 -0.217663 0.000000
vn -0.899229 -0.217275 0.379710
vn -0.687100 -0.219184 0.692714
vn -0.374265 -0.217835 0.901373
vn -0.000000 -0.218521 0.975832
vn 0.374264 -0.217835 0.901374
vn 0.687099 -0.219184 0.692714
vn 0.899228 -0.217275 0.379710
vn 0.976024 -0.217663 0.000001
vn 0.899229 -0.217275 -0.379709
vn 0.687100 -0.219184 -0.692713
vn 0.374265 -0.217835 -0.901373
vn 0.000000 -0.477528 -0.878617
vn -0.337288 -0.476033 -0.812176
vn -0.618337 -0.476527 -0.624965
vn -0.809727 -0.475604 -0.343720
vn -0.878894 -0.477016 0.000000
vn -0.809727 -0.475604 0.343720
vn -0.618337 -0.476527 0.624965
vn -0.337289 -0.476033 0.812176
vn -0.000001 -0.477527 0.878617
vn 0.337288 -0.476033 0.812176
vn 0.618336 -0.476527 0.624966
vn 0.809727 -0.475604 0.343720
vn 0.878895 -0.477016 0.000001
vn 0.809727 -0.475604 -0.343719
vn 0.618338 -0.476527 -0.624965
vn 0.337289 -0.476033 -0.812176
vn 0.000000 -0.766142 -0.642671
vn -0.246667 -0.765942 -0.593708
vn -0.452999 -0.764967 -0.457840
vn -0.591793 -0.765890 -0.251383
vn -0.642639 -0.766169 -0.000000
vn -0.591793 -0.765890 0.251383
vn -0.452999 -0.764967 0.457840
vn -0.246667 -0.765941 0.593708
vn -0.000000 -0.766142 0.642671
vn 0.246666 -0.765941 0.593708
vn 0.452999 -0.764967 0.457840
vn 0.591793 -0.765890 0.251384
vn 0.642639 -0.766169 0.000000
vn 0.591794 -0.765890 -0.251383
vn 0.452999 -0.764967 -0.457839
vn 0.246667 -0.765942 -0.593707
vn 0.000000 -0.959792 -0.280713
vn -0.106697 -0.960561 -0.256785
vn -0.198098 -0.959587 -0.199876
vn -0.255949 -0.960594 -0.108391
vn -0.280501 -0.959854 0.000000
vn -0.255949 -0.960594 0.108391
vn -0.198098 -0.959587 0.199877
vn -0.106696 -0.960561 0.256785
vn -0.000000 -0.959792 0.280713
vn 0.106696 -0.960561 0.256785
vn 0.198098 -0.959587 0.199877
vn 0.255949 -0.960594 0.108391
vn 0.280501 -0.959854 0.000000
vn 0.255949 -0.960594 -0.108391
vn 0.198098 -0.959587 -0.199876
vn 0.106697 -0.960561 -0.256785
vn 0.000000 -1.000000 -0.000000
# 162 vertex normals

vt 0.378610 0.977239 -0.734833
vt 0.296020 0.974407 -0.734833
vt 0.303490 0.931598 -0.734833
vt 0.319387 0.905254 -0.734833
vt 0.338345 0.892022 -0.734833
vt 0.357931 0.884911 -0.734833
vt 0.379005 0.883206 -0.734833
vt 0.403256 0.886070 -0.734833
vt 0.438241 0.899448 -0.734833
vt 0.501762 0.938078 0.734833
vt 0.624515 0.980726 -0.734833
vt 0.565714 0.901370 -0.734833
vt 0.600773 0.888953 -0.734833
vt 0.625003 0.886666 -0.734833
vt 0.646053 0.888862 -0.734833
vt 0.665597 0.896475 -0.734833
vt 0.684452 0.910262 -0.734833
vt 0.700066 0.937155 -0.734833
vt 0.707111 0.980247 -0.734833
vt 0.218554 0.948608 -0.734833
vt 0.240135 0.876891 -0.734833
vt 0.271647 0.835187 -0.734833
vt 0.305614 0.814409 -0.734833
vt 0.339611 0.803031 -0.734833
vt 0.374366 0.799698 -0.734833
vt 0.411326 0.802219 -0.734833
vt 0.454182 0.813130 -0.734833
vt 0.502355 0.824403 -0.734833
vt 0.550601 0.814615 -0.734833
vt 0.593488 0.804864 -0.734833
vt 0.630429 0.803214 -0.734833
vt 0.665158 0.807343 -0.734833
vt 0.699100 0.819571 -0.734833
vt 0.732933 0.841311 -0.734833
vt 0.764022 0.884068 -0.734833
vt 0.784806 0.956664 -0.734833
vt 0.142887 0.885173 -0.734833
vt 0.184492 0.803591 -0.734833
vt 0.231363 0.756986 -0.734833
vt 0.277730 0.733672 -0.734833
vt 0.322795 0.720515 -0.734833
vt 0.366905 0.715765 -0.734833
vt 0.411227 0.716450 -0.734833
vt 0.456693 0.722275 -0.734833
vt 0.502792 0.726923 -0.734833
vt 0.548912 0.723623 -0.734833
vt 0.594391 0.719016 -0.734833
vt 0.638700 0.719398 -0.734833
vt 0.682783 0.725176 -0.734833
vt 0.727759 0.739465 -0.734833
vt 0.774007 0.764092 -0.734833
vt 0.820424 0.812227 -0.734833
vt 0.861065 0.895402 -0.734833
vt 0.077461 0.781859 -0.734833
vt 0.140441 0.710755 -0.734833
vt 0.200547 0.670364 -0.734833
vt 0.256294 0.649437 -0.734833
vt 0.309094 0.636891 -0.734833
vt 0.359370 0.631088 -0.734833
vt 0.408322 0.629379 -0.734833
vt 0.456096 0.631104 -0.734833
vt 0.503216 0.632871 -0.734833
vt 0.550341 0.632419 -0.734833
vt 0.598116 0.631957 -0.734833
vt 0.647064 0.634866 -0.734833
vt 0.697343 0.641879 -0.734833
vt 0.750123 0.655783 -0.734833
vt 0.805692 0.678261 -0.734833
vt 0.865389 0.720582 -0.734833
vt 0.927466 0.793983 -0.734833
vt 0.032076 0.644648 -0.734833
vt 0.111638 0.602416 -0.734833
vt 0.180635 0.577373 -0.734833
vt 0.242097 0.562824 -0.734833
vt 0.299559 0.552752 -0.734833
vt 0.353523 0.546278 -0.734833
vt 0.405413 0.542064 -0.734833
vt 0.455121 0.540361 -0.734833
vt 0.503641 0.540227 -0.734833
vt 0.552154 0.541687 -0.734833
vt 0.601848 0.544698 -0.734833
vt 0.653727 0.550207 -0.734833
vt 0.707693 0.558011 -0.734833
vt 0.765121 0.569528 -0.734833
vt 0.826442 0.585791 -0.734833
vt 0.895179 0.613041 -0.734833
vt 0.974161 0.658117 -0.734833
vt 0.015034 0.489967 -0.734833
vt 0.100423 0.487293 -0.734833
vt 0.172390 0.482517 -0.734833
vt 0.235779 0.476626 -0.734833
vt 0.294733 0.470224 -0.734833
vt 0.350141 0.463355 -0.734833
vt 0.403610 0.456517 -0.734833
vt 0.454635 0.451358 -0.734833
vt 0.504061 0.449430 -0.734833
vt 0.553468 0.452717 -0.734833
vt 0.604456 0.459226 -0.734833
vt 0.657897 0.467414 -0.734833
vt 0.713311 0.475688 -0.734833
vt 0.772281 0.483469 -0.734833
vt 0.835452 0.491238 -0.734833
vt 0.907408 0.498266 -0.734833
vt 0.992700 0.503982 -0.734833
vt 0.028496 0.340972 -0.734833
vt 0.106987 0.376040 -0.734833
vt 0.175494 0.391015 -0.734833
vt 0.236841 0.394024 -0.734833
vt 0.294220 0.391643 -0.734833
vt 0.348911 0.384539 -0.734833
vt 0.402616 0.374819 -0.734833
vt 0.454422 0.365435 -0.734833
vt 0.504467 0.361164 -0.734833
vt 0.554479 0.366849 -0.734833
vt 0.606221 0.377623 -0.734833
vt 0.659854 0.388689 -0.734833
vt 0.714473 0.397214 -0.734833
vt 0.771821 0.400901 -0.734833
vt 0.833338 0.399691 -0.734833
vt 0.901860 0.386864 -0.734833
vt 0.980702 0.354641 -0.734833
vt 0.067630 0.216080 -0.734833
vt 0.129660 0.276281 -0.734833
vt 0.189066 0.305556 -0.734833
vt 0.244444 0.315576 -0.734833
vt 0.297187 0.316690 -0.734833
vt 0.348736 0.309517 -0.734833
vt 0.400817 0.296999 -0.734833
vt 0.453205 0.281673 -0.734833
vt 0.504866 0.273158 -0.734833
vt 0.556471 0.283201 -0.734833
vt 0.608771 0.299956 -0.734833
vt 0.660815 0.313770 -0.734833
vt 0.712332 0.322239 -0.734833
vt 0.765038 0.322385 -0.734833
vt 0.820482 0.313866 -0.734833
vt 0.880100 0.286505 -0.734833
vt 0.942801 0.228640 -0.734833
vt 0.124600 0.122942 -0.734833
vt 0.166147 0.190699 -0.734833
vt 0.212228 0.225649 -0.734833
vt 0.257777 0.238992 -0.734833
vt 0.302448 0.242173 -0.734833
vt 0.347777 0.235437 -0.734833
vt 0.395424 0.221197 -0.734833
vt 0.448261 0.197509 -0.734833
vt 0.505343 0.178140 -0.734833
vt 0.562235 0.199262 -0.734833
vt 0.614909 0.224412 -0.734833
vt 0.662503 0.239833 -0.734833
vt 0.707805 0.247647 -0.734833
vt 0.752470 0.245548 -0.734833
vt 0.798079 0.233426 -0.734833
vt 0.844448 0.199973 -0.734833
vt 0.886750 0.133866 -0.734833
vt 0.190460 0.063022 -0.734833
vt 0.212903 0.120405 -0.734833
vt 0.243423 0.151326 -0.734833
vt 0.275946 0.163667 -0.734833
vt 0.308958 0.167085 -0.734833
vt 0.343858 0.161496 -0.734833
vt 0.382167 0.147861 -0.734833
vt 0.429993 0.117934 -0.734833
vt 0.506015 0.055572 -0.235625
vt 0.581342 0.120232 -0.734833
vt 0.628912 0.151494 -0.734833
vt 0.667161 0.166079 -0.734833
vt 0.702039 0.172485 -0.734833
vt 0.735052 0.169867 -0.734833
vt 0.767635 0.158407 -0.734833
vt 0.798425 0.128495 -0.734833
vt 0.821481 0.072051 -0.734833
vt 0.320959 0.017326 -0.734833
vt 0.691437 0.022593 -0.734833
# 174 texture coords

g Dragon_Egg
usemtl wire_143224087
s 1
f 1/1/1 2/2/2 3/3/3 
f 1/1/1 3/3/3 4/4/4 
f 1/1/1 4/4/4 5/5/5 
f 1/1/1 5/5/5 6/6/6 
f 1/1/1 6/6/6 7/7/7 
f 1/1/1 7/7/7 8/8/8 
f 1/1/1 8/8/8 9/9/9 
f 1/1/1 9/9/9 10/10/10 
f 1/11/1 10/10/10 11/12/11 
f 1/11/1 11/12/11 12/13/12 
f 1/11/1 12/13/12 13/14/13 
f 1/11/1 13/14/13 14/15/14 
f 1/11/1 14/15/14 15/16/15 
f 1/11/1 15/16/15 16/17/16 
f 1/11/1 16/17/16 17/18/17 
f 1/11/1 17/18/17 2/19/2 
f 2/2/2 18/20/18 19/21/19 3/3/3 
f 3/3/3 19/21/19 20/22/20 4/4/4 
f 4/4/4 20/22/20 21/23/21 5/5/5 
f 5/5/5 21/23/21 22/24/22 6/6/6 
f 6/6/6 22/24/22 23/25/23 7/7/7 
f 7/7/7 23/25/23 24/26/24 8/8/8 
f 8/8/8 24/26/24 25/27/25 9/9/9 
f 9/9/9 25/27/25 26/28/26 10/10/10 
f 10/10/10 26/28/26 27/29/27 11/12/11 
f 11/12/11 27/29/27 28/30/28 12/13/12 
f 12/13/12 28/30/28 29/31/29 13/14/13 
f 13/14/13 29/31/29 30/32/30 14/15/14 
f 14/15/14 30/32/30 31/33/31 15/16/15 
f 15/16/15 31/33/31 32/34/32 16/17/16 
f 16/17/16 32/34/32 33/35/33 17/18/17 
f 17/18/17 33/35/33 18/36/18 2/19/2 
f 18/20/18 34/37/34 35/38/35 19/21/19 
f 19/21/19 35/38/35 36/39/36 20/22/20 
f 20/22/20 36/39/36 37/40/37 21/23/21 
f 21/23/21 37/40/37 38/41/38 22/24/22 
f 22/24/22 38/41/38 39/42/39 23/25/23 
f 23/25/23 39/42/39 40/43/40 24/26/24 
f 24/26/24 40/43/40 41/44/41 25/27/25 
f 25/27/25 41/44/41 42/45/42 26/28/26 
f 26/28/26 42/45/42 43/46/43 27/29/27 
f 27/29/27 43/46/43 44/47/44 28/30/28 
f 28/30/28 44/47/44 45/48/45 29/31/29 
f 29/31/29 45/48/45 46/49/46 30/32/30 
f 30/32/30 46/49/46 47/50/47 31/33/31 
f 31/33/31 47/50/47 48/51/48 32/34/32 
f 32/34/32 48/51/48 49/52/49 33/35/33 
f 33/35/33 49/52/49 34/53/34 18/36/18 
f 34/37/34 50/54/50 51/55/51 35/38/35 
f 35/38/35 51/55/51 52/56/52 36/39/36 
f 36/39/36 52/56/52 53/57/53 37/40/37 
f 37/40/37 53/57/53 54/58/54 38/41/38 
f 38/41/38 54/58/54 55/59/55 39/42/39 
f 39/42/39 55/59/55 56/60/56 40/43/40 
f 40/43/40 56/60/56 57/61/57 41/44/41 
f 41/44/41 57/61/57 58/62/58 42/45/42 
f 42/45/42 58/62/58 59/63/59 43/46/43 
f 43/46/43 59/63/59 60/64/60 44/47/44 
f 44/47/44 60/64/60 61/65/61 45/48/45 
f 45/48/45 61/65/61 62/66/62 46/49/46 
f 46/49/46 62/66/62 63/67/63 47/50/47 
f 47/50/47 63/67/63 64/68/64 48/51/48 
f 48/51/48 64/68/64 65/69/65 49/52/49 
f 49/52/49 65/69/65 50/70/50 34/53/34 
f 50/54/50 66/71/66 67/72/67 51/55/51 
f 51/55/51 67/72/67 68/73/68 52/56/52 
f 52/56/52 68/73/68 69/74/69 53/57/53 
f 53/57/53 69/74/69 70/75/70 54/58/54 
f 54/58/54 70/75/70 71/76/71 55/59/55 
f 55/59/55 71/76/71 72/77/72 56/60/56 
f 56/60/56 72/77/72 73/78/73 57/61/57 
f 57/61/57 73/78/73 74/79/74 58/62/58 
f 58/62/58 74/79/74 75/80/75 59/63/59 
f 59/63/59 75/80/75 76/81/76 60/64/60 
f 60/64/60 76/81/76 77/82/77 61/65/61 
f 61/65/61 77/82/77 78/83/78 62/66/62 
f 62/66/62 78/83/78 79/84/79 63/67/63 
f 63/67/63 79/84/79 80/85/80 64/68/64 
f 64/68/64 80/85/80 81/86/81 65/69/65 
f 65/69/65 81/86/81 66/87/66 50/70/50 
f 66/71/66 82/88/82 83/89/83 67/72/67 
f 67/72/67 83/89/83 84/90/84 68/73/68 
f 68/73/68 84/90/84 85/91/85 69/74/69 
f 69/74/69 85/91/85 86/92/86 70/75/70 
f 70/75/70 86/92/86 87/93/87 71/76/71 
f 71/76/71 87/93/87 88/94/88 72/77/72 
f 72/77/72 88/94/88 89/95/89 73/78/73 
f 73/78/73 89/95/89 90/96/90 74/79/74 
f 74/79/74 90/96/90 91/97/91 75/80/75 
f 75/80/75 91/97/91 92/98/92 76/81/76 
f 76/81/76 92/98/92 93/99/93 77/82/77 
f 77/82/77 93/99/93 94/100/94 78/83/78 
f 78/83/78 94/100/94 95/101/95 79/84/79 
f 79/84/79 95/101/95 96/102/96 80/85/80 
f 80/85/80 96/102/96 97/103/97 81/86/81 
f 81/86/81 97/103/97 82/104/82 66/87/66 
f 82/88/82 98/105/98 99/106/99 83/89/83 
f 83/89/83 99/106/99 100/107/100 84/90/84 
f 84/90/84 100/107/100 101/108/101 85/91/85 
f 85/91/85 101/108/101 102/109/102 86/92/86 
f 86/92/86 102/109/102 103/110/103 87/93/87 
f 87/93/87 103/110/103 104/111/104 88/94/88 
f 88/94/88 104/111/104 105/112/105 89/95/89 
f 89/95/89 105/112/105 106/113/106 90/96/90 
f 90/96/90 106/113/106 107/114/107 91/97/91 
f 91/97/91 107/114/107 108/115/108 92/98/92 
f 92/98/92 108/115/108 109/116/109 93/99/93 
f 93/99/93 109/116/109 110/117/110 94/100/94 
f 94/100/94 110/117/110 111/118/111 95/101/95 
f 95/101/95 111/118/111 112/119/112 96/102/96 
f 96/102/96 112/119/112 113/120/113 97/103/97 
f 97/103/97 113/120/113 98/121/98 82/104/82 
f 98/105/98 114/122/114 115/123/115 99/106/99 
f 99/106/99 115/123/115 116/124/116 100/107/100 
f 100/107/100 116/124/116 117/125/117 101/108/101 
f 101/108/101 117/125/117 118/126/118 102/109/102 
f 102/109/102 118/126/118 119/127/119 103/110/103 
f 103/110/103 119/127/119 120/128/120 104/111/104 
f 104/111/104 120/128/120 121/129/121 105/112/105 
f 105/112/105 121/129/121 122/130/122 106/113/106 
f 106/113/106 122/130/122 123/131/123 107/114/107 
f 107/114/107 123/131/123 124/132/124 108/115/108 
f 108/115/108 124/132/124 125/133/125 109/116/109 
f 109/116/109 125/133/125 126/134/126 110/117/110 
f 110/117/110 126/134/126 127/135/127 111/118/111 
f 111/118/111 127/135/127 128/136/128 112/119/112 
f 112/119/112 128/136/128 129/137/129 113/120/113 
f 113/120/113 129/137/129 114/138/114 98/121/98 
f 114/122/114 130/139/130 131/140/131 115/123/115 
f 115/123/115 131/140/131 132/141/132 116/124/116 
f 116/124/116 132/141/132 133/142/133 117/125/117 
f 117/125/117 133/142/133 134/143/134 118/126/118 
f 118/126/118 134/143/134 135/144/135 119/127/119 
f 119/127/119 135/144/135 136/145/136 120/128/120 
f 120/128/120 136/145/136 137/146/137 121/129/121 
f 121/129/121 137/146/137 138/147/138 122/130/122 
f 122/130/122 138/147/138 139/148/139 123/131/123 
f 123/131/123 139/148/139 140/149/140 124/132/124 
f 124/132/124 140/149/140 141/150/141 125/133/125 
f 125/133/125 141/150/141 142/151/142 126/134/126 
f 126/134/126 142/151/142 143/152/143 127/135/127 
f 127/135/127 143/152/143 144/153/144 128/136/128 
f 128/136/128 144/153/144 145/154/145 129/137/129 
f 129/137/129 145/154/145 130/155/130 114/138/114 
f 130/139/130 146/156/146 147/157/147 131/140/131 
f 131/140/131 147/157/147 148/158/148 132/141/132 
f 132/141/132 148/158/148 149/159/149 133/142/133 
f 133/142/133 149/159/149 150/160/150 134/143/134 
f 134/143/134 150/160/150 151/161/151 135/144/135 
f 135/144/135 151/161/151 152/162/152 136/145/136 
f 136/145/136 152/162/152 153/163/153 137/146/137 
f 137/146/137 153/163/153 154/164/154 138/147/138 
f 138/147/138 154/164/154 155/165/155 139/148/139 
f 139/148/139 155/165/155 156/166/156 140/149/140 
f 140/149/140 156/166/156 157/167/157 141/150/141 
f 141/150/141 157/167/157 158/168/158 142/151/142 
f 142/151/142 158/168/158 159/169/159 143/152/143 
f 143/152/143 159/169/159 160/170/160 144/153/144 
f 144/153/144 160/170/160 161/171/161 145/154/145 
f 145/154/145 161/171/161 146/172/146 130/155/130 
f 147/157/147 146/156/146 162/173/162 
f 148/158/148 147/157/147 162/173/162 
f 149/159/149 148/158/148 162/173/162 
f 150/160/150 149/159/149 162/173/162 
f 151/161/151 150/160/150 162/173/162 
f 152/162/152 151/161/151 162/173/162 
f 153/163/153 152/162/152 162/173/162 
f 154/164/154 153/163/153 162/173/162 
f 155/165/155 154/164/154 162/174/162 
f 156/166/156 155/165/155 162/174/162 
f 157/167/157 156/166/156 162/174/162 
f 158/168/158 157/167/157 162/174/162 
f 159/169/159 158/168/158 162/174/162 
f 160/170/160 159/169/159 162/174/162 
f 161/171/161 160/170/160 162/174/162 
f 146/172/146 161/171/161 162/174/162 
# 144 polygons - 32 triangles

